<svg width="1600" height="900" viewBox="0 0 1600 900" fill="none" xmlns="http://www.w3.org/2000/svg" role="img" aria-labelledby="title desc">
  <title id="title">Portuguesa F.C. vs Academia Puerto Cabello - FUTVE por YouTube en cronoplay.com</title>
  <desc id="desc">Banner promocional del partido Portuguesa F.C. vs Academia Puerto Cabello. Hoy a las 5:00 P.M. hora Venezuela por YouTube y FUTVE en cronoplay.com.</desc>
  <defs>
    <linearGradient id="bg" x1="99" y1="44" x2="1470" y2="816" gradientUnits="userSpaceOnUse">
      <stop stop-color="#08111B"/>
      <stop offset="0.52" stop-color="#101D2D"/>
      <stop offset="1" stop-color="#05080D"/>
    </linearGradient>
    <linearGradient id="glowLeft" x1="0" y1="450" x2="560" y2="450" gradientUnits="userSpaceOnUse">
      <stop stop-color="#0E8A59" stop-opacity="0.48"/>
      <stop offset="1" stop-color="#0E8A59" stop-opacity="0"/>
    </linearGradient>
    <linearGradient id="glowRight" x1="1600" y1="450" x2="1020" y2="450" gradientUnits="userSpaceOnUse">
      <stop stop-color="#FF2B2B" stop-opacity="0.52"/>
      <stop offset="1" stop-color="#FF2B2B" stop-opacity="0"/>
    </linearGradient>
    <linearGradient id="panel" x1="389" y1="241" x2="1218" y2="680" gradientUnits="userSpaceOnUse">
      <stop stop-color="#0D1622" stop-opacity="0.92"/>
      <stop offset="1" stop-color="#18263A" stop-opacity="0.78"/>
    </linearGradient>
    <linearGradient id="pill" x1="1160" y1="102" x2="1450" y2="102" gradientUnits="userSpaceOnUse">
      <stop stop-color="#FF2B2B"/>
      <stop offset="1" stop-color="#FF6A00"/>
    </linearGradient>
    <filter id="softShadow" x="325" y="184" width="964" height="544" filterUnits="userSpaceOnUse" color-interpolation-filters="sRGB">
      <feFlood flood-opacity="0" result="BackgroundImageFix"/>
      <feColorMatrix in="SourceAlpha" type="matrix" values="0 0 0 0 0 0 0 0 0 0 0 0 0 0 0 0 0 0 127 0" result="hardAlpha"/>
      <feOffset dy="18"/>
      <feGaussianBlur stdDeviation="22"/>
      <feColorMatrix type="matrix" values="0 0 0 0 0.0117647 0 0 0 0 0.0313726 0 0 0 0 0.0588235 0 0 0 0.42 0"/>
      <feBlend mode="normal" in2="BackgroundImageFix" result="effect1_dropShadow_1_2"/>
      <feBlend mode="normal" in="SourceGraphic" in2="effect1_dropShadow_1_2" result="shape"/>
    </filter>
  </defs>

  <rect width="1600" height="900" fill="url(#bg)"/>
  <circle cx="1260" cy="170" r="254" fill="url(#glowRight)"/>
  <circle cx="278" cy="724" r="270" fill="url(#glowLeft)"/>
  <circle cx="1335" cy="735" r="335" stroke="#FFFFFF" stroke-opacity="0.08" stroke-width="34"/>
  <circle cx="1335" cy="735" r="275" stroke="#FFFFFF" stroke-opacity="0.06" stroke-width="16"/>
  <circle cx="265" cy="212" r="220" stroke="#FFFFFF" stroke-opacity="0.06" stroke-width="24"/>
  <circle cx="265" cy="212" r="168" stroke="#FFFFFF" stroke-opacity="0.04" stroke-width="10"/>

  <rect x="86" y="74" width="250" height="54" rx="27" fill="#FFFFFF" fill-opacity="0.08" stroke="#FFFFFF" stroke-opacity="0.14" stroke-width="2"/>
  <text x="211" y="108" fill="#F6F7FA" font-family="Arial, Helvetica, sans-serif" font-size="28" font-weight="700" text-anchor="middle">cronoplay.com</text>

  <rect x="1138" y="74" width="318" height="56" rx="28" fill="url(#pill)"/>
  <path d="M1180 91C1180 86.5817 1183.58 83 1188 83H1212C1216.42 83 1220 86.5817 1220 91V113C1220 117.418 1216.42 121 1212 121H1188C1183.58 121 1180 117.418 1180 113V91Z" fill="white" fill-opacity="0.16"/>
  <path d="M1193 93.75C1193 91.9551 1194.46 90.5 1196.25 90.5H1203.75C1205.54 90.5 1207 91.9551 1207 93.75V110.25C1207 112.045 1205.54 113.5 1203.75 113.5H1196.25C1194.46 113.5 1193 112.045 1193 110.25V93.75Z" stroke="white" stroke-width="2.2"/>
  <path d="M1199 97.5L1203.5 102L1199 106.5V97.5Z" fill="white"/>
  <text x="1316" y="109" fill="#FFFFFF" font-family="Arial, Helvetica, sans-serif" font-size="26" font-weight="800" text-anchor="middle">YOUTUBE / FUTVE</text>

  <g filter="url(#softShadow)">
    <rect x="369" y="226" width="862" height="458" rx="34" fill="url(#panel)" stroke="#FFFFFF" stroke-opacity="0.12" stroke-width="3"/>
  </g>

  <rect x="402" y="264" width="270" height="382" rx="28" fill="#08111B" fill-opacity="0.58" stroke="#2AE28D" stroke-width="4"/>
  <path d="M493 380L537 334L581 380V525L537 567L493 525V380Z" stroke="#FFFFFF" stroke-width="18" stroke-linejoin="round"/>
  <circle cx="537" cy="448" r="58" stroke="#FFFFFF" stroke-width="12"/>
  <text x="537" y="603" fill="#FFFFFF" font-family="Arial, Helvetica, sans-serif" font-size="29" font-weight="800" text-anchor="middle" letter-spacing="3">PORTUGUESA F.C.</text>

  <rect x="928" y="264" width="270" height="382" rx="28" fill="#08111B" fill-opacity="0.58" stroke="#FFCD29" stroke-width="4"/>
  <path d="M1062 334L1132 382V527L1062 575L992 527V382L1062 334Z" stroke="#FFFFFF" stroke-width="18" stroke-linejoin="round"/>
  <path d="M1062 390L1110 423V496L1062 530L1014 496V423L1062 390Z" stroke="#FFFFFF" stroke-width="10" stroke-linejoin="round"/>
  <text x="1062" y="603" fill="#FFFFFF" font-family="Arial, Helvetica, sans-serif" font-size="29" font-weight="800" text-anchor="middle" letter-spacing="2.4">PUERTO CABELLO</text>

  <text x="801" y="324" fill="#FFFFFF" font-family="Arial, Helvetica, sans-serif" font-size="44" font-weight="800" text-anchor="middle" letter-spacing="5">COBERTURA ESPECIAL</text>
  <text x="801" y="420" fill="#FFFFFF" font-family="Arial, Helvetica, sans-serif" font-size="72" font-weight="800" text-anchor="middle">PORTUGUESA F.C.</text>
  <text x="801" y="504" fill="#FFFFFF" font-family="Arial, Helvetica, sans-serif" font-size="70" font-weight="800" text-anchor="middle">VS.</text>
  <text x="801" y="590" fill="#FFFFFF" font-family="Arial, Helvetica, sans-serif" font-size="70" font-weight="800" text-anchor="middle">ACADEMIA PUERTO CABELLO</text>

  <rect x="544" y="724" width="514" height="84" rx="42" fill="#FFFFFF" fill-opacity="0.08" stroke="#FFFFFF" stroke-opacity="0.14" stroke-width="2"/>
  <text x="801" y="777" fill="#FFFFFF" font-family="Arial, Helvetica, sans-serif" font-size="39" font-weight="800" text-anchor="middle">HOY 5:00 P.M. HORA VENEZUELA</text>
</svg>
